<svg xmlns:xlink="http://www.w3.org/1999/xlink" xmlns="http://www.w3.org/2000/svg" class="icon" width="136.23"  height="155.73" ><defs><symbol id="icon-watch2gether" fill="#AAAAAA" xmlns="http://www.w3.org/2000/svg" xml:space="preserve" viewBox="0 0 136.23 155.73"> <path d="M120.54,69.91L73.11,42.52c-6.13-3.54-13.79,0.88-13.79,7.96v54.76c0,7.08,7.66,11.5,13.79,7.96l47.43-27.38 C126.67,82.29,126.67,73.44,120.54,69.91z" fill="#AAAAAA"></path> <path d="M44.12,72.87H32.08c-2.12-6.63-8.32-11.43-15.65-11.43C7.36,61.44,0,68.79,0,77.87 C0,86.94,7.36,94.3,16.43,94.3c7.33,0,13.53-4.8,15.65-11.43h12.03c2.76,0,5-2.24,5-5S46.88,72.87,44.12,72.87z" fill="#AAAAAA"></path> <path d="M101.2,48.64c0.79,0.45,1.65,0.67,2.5,0.67c1.73,0,3.41-0.9,4.33-2.5l8.27-14.33 c1.13,0.24,2.29,0.38,3.49,0.38c9.07,0,16.43-7.36,16.43-16.43C136.23,7.36,128.87,0,119.8,0c-9.07,0-16.43,7.36-16.43,16.43 c0,4.25,1.63,8.12,4.28,11.04l-8.28,14.34C97.99,44.2,98.81,47.26,101.2,48.64z" fill="#AAAAAA"></path> <path d="M119.8,122.87c-1.2,0-2.37,0.14-3.49,0.38l-8.08-13.99c-1.38-2.39-4.44-3.21-6.83-1.83 c-2.39,1.38-3.21,4.44-1.83,6.83l8.08,14c-2.65,2.92-4.28,6.78-4.28,11.04c0,9.07,7.36,16.43,16.43,16.43 c9.07,0,16.43-7.36,16.43-16.43C136.23,130.23,128.87,122.87,119.8,122.87z" fill="#AAAAAA"></path> </symbol></defs> <use xlink:href="#icon-watch2gether"></use> </svg>