<svg xmlns:xlink="http://www.w3.org/1999/xlink" xmlns="http://www.w3.org/2000/svg" class="icon" width="27.19"  height="27" ><defs><symbol id="icon-tip-arrow-up" fill="#AAAAAA" xmlns="http://www.w3.org/2000/svg" viewBox="0 0 27.19 27"> <path d="M1082.48,704.005h-14.15a6.511,6.511,0,0,0-6.53,6.476V724.52a6.511,6.511,0,0,0,6.53,6.476h14.15a6.511,6.511,0,0,0,6.53-6.476V710.481A6.511,6.511,0,0,0,1082.48,704.005Zm-18.81,6.476a4.648,4.648,0,0,1,4.66-4.626h14.15a4.648,4.648,0,0,1,4.66,4.626v9.3a4.648,4.648,0,0,1-4.66,4.625h-14.15a4.648,4.648,0,0,1-4.66-4.625v-9.3Zm23.47,14.039a4.648,4.648,0,0,1-4.66,4.626h-14.15a4.648,4.648,0,0,1-4.66-4.626v-0.211a6.523,6.523,0,0,0,4.66,1.952h14.15a6.506,6.506,0,0,0,4.66-1.952v0.211Zm-11.36-4.056h-0.66a0.93,0.93,0,0,1-.93-0.925v-7.157a0.93,0.93,0,0,1,.93-0.925h0.66a0.932,0.932,0,0,1,.94.925v7.157A0.932,0.932,0,0,1,1075.78,720.464Zm-1.52-10.65,0.47-.464a0.94,0.94,0,0,1,1.32,0l3.06,3.034a0.927,0.927,0,0,1,0,1.308l-0.47.463a0.938,0.938,0,0,1-1.32,0l-3.06-3.033A0.927,0.927,0,0,1,1074.26,709.814Zm1.82-.464,0.47,0.464a0.927,0.927,0,0,1,0,1.308l-3.06,3.033a0.938,0.938,0,0,1-1.32,0l-0.46-.463a0.909,0.909,0,0,1,0-1.308l3.05-3.034A0.94,0.94,0,0,1,1076.08,709.35Z" transform="translate(-1061.81 -704)" fill="#AAAAAA"></path> </symbol></defs> <use xlink:href="#icon-tip-arrow-up"></use> </svg>