<svg xmlns:xlink="http://www.w3.org/1999/xlink" xmlns="http://www.w3.org/2000/svg" class="icon" width="27.19"  height="27" ><defs><symbol id="icon-tip-enter" fill="#AAAAAA" xmlns="http://www.w3.org/2000/svg" viewBox="0 0 27.19 27"> <path d="M1246.68,704.005h-14.15a6.511,6.511,0,0,0-6.53,6.476V724.52a6.511,6.511,0,0,0,6.53,6.476h14.15a6.509,6.509,0,0,0,6.52-6.476V710.481A6.509,6.509,0,0,0,1246.68,704.005Zm-18.81,6.476a4.648,4.648,0,0,1,4.66-4.626h14.15a4.648,4.648,0,0,1,4.66,4.626v9.3a4.648,4.648,0,0,1-4.66,4.625h-14.15a4.648,4.648,0,0,1-4.66-4.625v-9.3Zm23.47,14.039a4.648,4.648,0,0,1-4.66,4.626h-14.15a4.648,4.648,0,0,1-4.66-4.626v-0.211a6.506,6.506,0,0,0,4.66,1.952h14.15a6.541,6.541,0,0,0,4.66-1.952v0.211Zm-6.68-7.2v0.655a0.93,0.93,0,0,1-.93.925h-7.22a0.93,0.93,0,0,1-.93-0.925v-0.655a0.931,0.931,0,0,1,.93-0.926h7.22A0.931,0.931,0,0,1,1244.66,717.317Zm-0.93,1.58h-0.66a0.932,0.932,0,0,1-.94-0.925v-8.279a0.933,0.933,0,0,1,.94-0.925h0.66a0.93,0.93,0,0,1,.93.925v8.279A0.93,0.93,0,0,1,1243.73,718.9Zm-9.8-.072-0.47-.463a0.909,0.909,0,0,1,0-1.308l3.05-3.034a0.94,0.94,0,0,1,1.32,0l0.47,0.464a0.927,0.927,0,0,1,0,1.308l-3.06,3.033A0.928,0.928,0,0,1,1233.93,718.825Zm-0.47-1.8,0.47-.463a0.928,0.928,0,0,1,1.31,0l3.06,3.033a0.928,0.928,0,0,1,0,1.309l-0.47.463a0.94,0.94,0,0,1-1.32,0l-3.05-3.033A0.911,0.911,0,0,1,1233.46,717.021Z" transform="translate(-1226 -704)" fill="#AAAAAA"></path> </symbol></defs> <use xlink:href="#icon-tip-enter"></use> </svg>