<svg xmlns:xlink="http://www.w3.org/1999/xlink" xmlns="http://www.w3.org/2000/svg" class="icon" width="27.12"  height="27.125" ><defs><symbol id="icon-tip-esc" fill="#AAAAAA" xmlns="http://www.w3.org/2000/svg" viewBox="0 0 27.12 27.125"> <path d="M1388.55,731.083h-14.1a6.514,6.514,0,0,1-6.51-6.5v-14.1a6.515,6.515,0,0,1,6.51-6.5h14.1a6.506,6.506,0,0,1,6.5,6.5v14.1A6.506,6.506,0,0,1,1388.55,731.083Zm-14.1-25.253a4.656,4.656,0,0,0-4.65,4.646v14.1a4.656,4.656,0,0,0,4.65,4.646h14.1a4.656,4.656,0,0,0,4.65-4.646v-14.1a4.656,4.656,0,0,0-4.65-4.646h-14.1Zm14.1,20.5h-14.1a6.515,6.515,0,0,1-6.51-6.5v-9.346a6.515,6.515,0,0,1,6.51-6.5h14.1a6.506,6.506,0,0,1,6.5,6.5v9.346A6.506,6.506,0,0,1,1388.55,726.327Zm-14.1-20.5a4.656,4.656,0,0,0-4.65,4.646v9.346a4.656,4.656,0,0,0,4.65,4.646h14.1a4.656,4.656,0,0,0,4.65-4.646v-9.346a4.656,4.656,0,0,0-4.65-4.646h-14.1Zm-1.47,13.774a1.061,1.061,0,0,1-.79-0.269,1.025,1.025,0,0,1-.28-0.781l-0.01-5.707a0.952,0.952,0,0,1,1.06-1.055l3.76-.009a0.8,0.8,0,0,1,.59.2,0.757,0.757,0,0,1,.21.576,0.834,0.834,0,0,1-.2.594,0.8,0.8,0,0,1-.6.205l-2.87.008v1.485l2.63-.007a0.792,0.792,0,0,1,.59.2,0.771,0.771,0,0,1,.21.587,0.812,0.812,0,0,1-.2.588,0.838,0.838,0,0,1-.6.2l-2.62.007v1.607l2.87-.007a0.787,0.787,0,0,1,.6.2,0.808,0.808,0,0,1,.2.581,0.769,0.769,0,0,1-.2.587,0.806,0.806,0,0,1-.6.2Zm8.09,0.1a7.305,7.305,0,0,1-.93-0.059,6.107,6.107,0,0,1-.91-0.181,4.625,4.625,0,0,1-.78-0.286,0.858,0.858,0,0,1-.42-0.381,0.879,0.879,0,0,1-.09-0.5,0.892,0.892,0,0,1,.19-0.471,0.752,0.752,0,0,1,.41-0.279,0.819,0.819,0,0,1,.57.071,4.21,4.21,0,0,0,.96.308,4.787,4.787,0,0,0,.99.109,2,2,0,0,0,1.03-.2,0.578,0.578,0,0,0,.29-0.484,0.484,0.484,0,0,0-.21-0.409,1.838,1.838,0,0,0-.72-0.264l-1.3-.274a2.952,2.952,0,0,1-1.59-.772,2.031,2.031,0,0,1-.52-1.428,2.277,2.277,0,0,1,.24-1.048,2.236,2.236,0,0,1,.67-0.8,3.268,3.268,0,0,1,1.04-.517,4.618,4.618,0,0,1,1.35-.186,5.612,5.612,0,0,1,1.17.124,3.462,3.462,0,0,1,1.02.38,0.827,0.827,0,0,1,.37.365,1,1,0,0,1,.09.481,0.836,0.836,0,0,1-.17.438,0.7,0.7,0,0,1-.4.251,0.95,0.95,0,0,1-.59-0.082,3.216,3.216,0,0,0-.73-0.214,4.449,4.449,0,0,0-.78-0.07,2.23,2.23,0,0,0-.7.1,0.971,0.971,0,0,0-.44.273,0.616,0.616,0,0,0-.15.41,0.528,0.528,0,0,0,.2.393,1.75,1.75,0,0,0,.72.27l1.28,0.274a3.182,3.182,0,0,1,1.61.761,1.894,1.894,0,0,1,.54,1.384,2.243,2.243,0,0,1-.24,1.042,2.162,2.162,0,0,1-.66.793,3.153,3.153,0,0,1-1.04.507A4.857,4.857,0,0,1,1381.07,719.707Zm7.81-.019a4.67,4.67,0,0,1-2.23-.493,3.432,3.432,0,0,1-1.43-1.4,4.372,4.372,0,0,1-.49-2.126,4.58,4.58,0,0,1,.27-1.652,3.5,3.5,0,0,1,2.13-2.094,4.966,4.966,0,0,1,1.73-.286,5.036,5.036,0,0,1,1.06.113,3.423,3.423,0,0,1,.97.347,0.922,0.922,0,0,1,.43.42,0.951,0.951,0,0,1,.09.521,1.033,1.033,0,0,1-.2.477,0.693,0.693,0,0,1-.93.212,3.793,3.793,0,0,0-.66-0.237,2.652,2.652,0,0,0-.68-0.081,2.257,2.257,0,0,0-1.14.263,1.608,1.608,0,0,0-.69.761,2.694,2.694,0,0,0-.23,1.23,3.018,3.018,0,0,0,.23,1.235,1.663,1.663,0,0,0,.7.764,2.284,2.284,0,0,0,1.14.257,2.814,2.814,0,0,0,.62-0.074,3.079,3.079,0,0,0,.66-0.228,0.906,0.906,0,0,1,.59-0.079,0.785,0.785,0,0,1,.42.264,0.97,0.97,0,0,1,.21.46,0.865,0.865,0,0,1-.48.927,3.3,3.3,0,0,1-.95.367A4.988,4.988,0,0,1,1388.88,719.688Z" transform="translate(-1367.94 -703.969)" fill="#AAAAAA"></path> </symbol></defs> <use xlink:href="#icon-tip-esc"></use> </svg>