<svg xmlns:xlink="http://www.w3.org/1999/xlink" xmlns="http://www.w3.org/2000/svg" class="icon" width="17.43"  height="17.438" ><defs><symbol id="icon-tip-filter" fill="#AAAAAA" xmlns="http://www.w3.org/2000/svg" viewBox="0 0 17.43 17.438"> <defs></defs> <path d="M1666.63,124.643c-4.18,0-8.74.873-8.74,2.806v2.806a0.5,0.5,0,0,0,.19.437l6.05,4.8v5.987a0.766,0.766,0,0,0,.31.561,0.482,0.482,0,0,0,.31.062,0.3,0.3,0,0,0,.25-0.062l4.37-2.5a0.7,0.7,0,0,0,.37-0.561v-3.492l5.43-4.8a0.7,0.7,0,0,0,.19-0.437v-2.806C1675.36,125.516,1670.8,124.643,1666.63,124.643Zm0,1.247c4.98,0,7.42,1.123,7.48,1.559-0.06.437-2.5,1.559-7.48,1.559s-7.43-1.122-7.49-1.559C1659.2,127.013,1661.64,125.89,1666.63,125.89Z" transform="translate(-1657.91 -124.656)" fill="#AAAAAA"></path> </symbol></defs> <use xlink:href="#icon-tip-filter"></use> </svg>