<svg xmlns:xlink="http://www.w3.org/1999/xlink" xmlns="http://www.w3.org/2000/svg" class="icon" width="25.28"  height="26.281" ><defs><symbol id="icon-random" fill="#AAAAAA" xmlns="http://www.w3.org/2000/svg" viewBox="0 0 25.28 26.281"> <path d="M2056.22,92.021c-1.06,0-2.09,0-3.11,0a9.006,9.006,0,0,1-1.26-.041,2.907,2.907,0,0,1-1.98-1.309c-0.46-.674-0.83-1.415-1.23-2.131a6.668,6.668,0,0,1-.31-0.679c-0.13.3-.22,0.5-0.31,0.706a8.488,8.488,0,0,1-1.59,2.523,2.917,2.917,0,0,1-2.2.936c-1.23-.018-2.47,0-3.7-0.005a1.638,1.638,0,1,1,0-3.275c1.1,0,2.21-.016,3.31.009a0.685,0.685,0,0,0,.73-0.413c0.44-.962.88-1.92,1.27-2.9,0.29-.716.51-1.463,0.75-2.2a0.739,0.739,0,0,0,.02-0.388q-0.855-2.31-1.72-4.612l-0.03-.075a1.247,1.247,0,0,0-1.42-.913c-0.96.081-1.94,0.022-2.91,0.018a1.638,1.638,0,1,1,0-3.275c1.22,0,2.44.018,3.66-.007a2.979,2.979,0,0,1,2.38,1.081,8.773,8.773,0,0,1,1.67,2.9c0.72,1.99,1.36,4.01,2.08,6,0.48,1.353,1.04,2.68,1.56,4.016a1.089,1.089,0,0,0,1.22.771c1.02-.064,2.04-0.017,3.12-0.017,0-.845-0.01-1.658.01-2.472a1.553,1.553,0,0,1,1.74-1.6,2.6,2.6,0,0,1,1.05.52c0.59,0.441,1.13.941,1.69,1.42,0.8,0.688,1.59,1.377,2.39,2.069,0.14,0.123.28,0.251,0.41,0.386a1.684,1.684,0,0,1,0,2.614c-1.02.966-2.1,1.865-3.16,2.778a17.4,17.4,0,0,1-1.74,1.4,1.554,1.554,0,0,1-2.39-1.4V92.021Zm0-14.749c-1.26,0-2.47-.009-3.67.013a0.565,0.565,0,0,0-.39.293c-0.37.736-.71,1.485-1.06,2.232-0.08.169-.14,0.348-0.24,0.612-0.08-.179-0.13-0.278-0.17-0.379-0.44-1.15-.89-2.3-1.32-3.456a0.694,0.694,0,0,1,.03-0.548,3.714,3.714,0,0,1,2.38-1.994,2.961,2.961,0,0,1,.58-0.051c1.14,0,2.27,0,3.4,0h0.46c0-.79.01-1.537,0-2.284a1.68,1.68,0,0,1,.86-1.627,1.438,1.438,0,0,1,1.73.2c1.24,1.032,2.47,2.087,3.69,3.136,0.34,0.286.68,0.571,0.99,0.885a1.692,1.692,0,0,1-.02,2.67c-1.01.953-2.08,1.842-3.13,2.745a17.165,17.165,0,0,1-1.74,1.4,1.554,1.554,0,0,1-2.38-1.415V77.272Z" transform="translate(-2038.88 -69.875)" fill="#AAAAAA"></path> </symbol></defs> <use xlink:href="#icon-random"></use> </svg>