<svg xmlns:xlink="http://www.w3.org/1999/xlink" xmlns="http://www.w3.org/2000/svg" class="icon" width="27.22"  height="27" ><defs><symbol id="icon-tip-arrow-down" fill="#AAAAAA" xmlns="http://www.w3.org/2000/svg" viewBox="0 0 27.22 27"> <path d="M1050.84,704.005h-14.15a6.509,6.509,0,0,0-6.52,6.476V724.52a6.509,6.509,0,0,0,6.52,6.476h14.15a6.511,6.511,0,0,0,6.53-6.476V710.481A6.511,6.511,0,0,0,1050.84,704.005Zm-18.81,6.476a4.648,4.648,0,0,1,4.66-4.626h14.15a4.657,4.657,0,0,1,4.67,4.626v9.3a4.656,4.656,0,0,1-4.67,4.625h-14.15a4.648,4.648,0,0,1-4.66-4.625v-9.3Zm23.48,14.039a4.657,4.657,0,0,1-4.67,4.626h-14.15a4.648,4.648,0,0,1-4.66-4.626v-0.211a6.541,6.541,0,0,0,4.66,1.952h14.15a6.547,6.547,0,0,0,4.67-1.952v0.211Zm-12.12-15.3h0.66a0.923,0.923,0,0,1,.93.925V717.3a0.923,0.923,0,0,1-.93.925h-0.66a0.93,0.93,0,0,1-.93-0.925V710.14A0.93,0.93,0,0,1,1043.39,709.215Zm1.52,10.65-0.47.464a0.928,0.928,0,0,1-1.31,0l-3.06-3.033a0.911,0.911,0,0,1,0-1.309l0.47-.463a0.926,0.926,0,0,1,1.31,0l3.06,3.033A0.909,0.909,0,0,1,1044.91,719.865Zm-1.82.464-0.46-.464a0.909,0.909,0,0,1,0-1.308l3.05-3.033a0.938,0.938,0,0,1,1.32,0l0.47,0.463a0.928,0.928,0,0,1,0,1.309l-3.06,3.033A0.94,0.94,0,0,1,1043.09,720.329Z" transform="translate(-1030.16 -704)" fill="#AAAAAA"></path> </symbol></defs> <use xlink:href="#icon-tip-arrow-down"></use> </svg>